<svg width="32" height="32" viewBox="0 0 32 32" fill="none" xmlns="http://www.w3.org/2000/svg">
<path d="M29.41 9.26C29.2507 8.66804 28.9386 8.12831 28.5052 7.69483C28.0717 7.26136 27.532 6.94934 26.94 6.79C24.76 6.2 16 6.2 16 6.2C16 6.2 7.24 6.2 5.06 6.79C4.46804 6.94934 3.92832 7.26136 3.49484 7.69483C3.06136 8.12831 2.74934 8.66804 2.59 9.26C2.18295 11.4833 1.98542 13.7398 2 16C1.98542 18.2602 2.18295 20.5167 2.59 22.74C2.74934 23.332 3.06136 23.8717 3.49484 24.3052C3.92832 24.7386 4.46804 25.0507 5.06 25.21C7.24 25.8 16 25.8 16 25.8C16 25.8 24.76 25.8 26.94 25.21C27.532 25.0507 28.0717 24.7386 28.5052 24.3052C28.9386 23.8717 29.2507 23.332 29.41 22.74C29.8171 20.5167 30.0146 18.2602 30 16C30.0146 13.7398 29.8171 11.4833 29.41 9.26ZM13.2 20.2V11.8L20.47 16L13.2 20.2Z" fill="white"/>
</svg>
