<?xml version="1.0" encoding="utf-8"?>
<!-- Generator: Adobe Illustrator 25.0.1, SVG Export Plug-In . SVG Version: 6.00 Build 0)  -->
<svg version="1.1" id="icon" xmlns="http://www.w3.org/2000/svg" xmlns:xlink="http://www.w3.org/1999/xlink" x="0px" y="0px"
	 viewBox="0 0 32 32" style="enable-background:new 0 0 32 32;" xml:space="preserve">
<style type="text/css">
	.st0{fill:#FFFFFF;}
	.st1{fill:none;}
</style>
<path class="st0" d="M29.4,11.8c-0.3-0.9-0.6-1.7-1.1-2.5c-0.6-1.2-1.5-2.3-2.4-3.2c-5.5-5.5-14.3-5.5-19.8,0s-5.5,14.3,0,19.8
	c5.5,5.5,14.3,5.5,19.8,0c1-1,1.8-2,2.4-3.2c0.4-0.8,0.8-1.6,1.1-2.5C30.2,17.5,30.2,14.5,29.4,11.8z M4,16C4,9.4,9.4,4,16,4v24
	C9.4,28,4,22.6,4,16z"/>
<rect id="_Transparent_Rectangle_" class="st1" width="32" height="32"/>
</svg>
