<svg width="32" height="32" viewBox="0 0 32 32" fill="none" xmlns="http://www.w3.org/2000/svg">
<path d="M27.9774 9.6279C27.9759 9.19564 27.9363 8.76436 27.8588 8.3391C27.7724 7.81919 27.6082 7.31526 27.3716 6.8443C27.1126 6.34927 26.7753 5.89934 26.3728 5.5119C25.7647 4.91721 25.0138 4.48905 24.1923 4.2686C23.4378 4.08582 22.6625 4.00318 21.8864 4.0228L21.882 4.0109H10.1143L10.1136 4.0228C9.67217 4.01929 9.23086 4.03901 8.7915 4.0819C8.31007 4.13327 7.83617 4.24001 7.3792 4.4C6.62643 4.68345 5.9511 5.14042 5.40806 5.73382C4.86502 6.32721 4.46956 7.04031 4.2538 7.8152C4.07226 8.563 3.98959 9.33139 4.0079 10.1007L4 21.9065C4.00759 22.4411 4.04391 22.975 4.1088 23.5057C4.18894 24.0659 4.3546 24.6105 4.6 25.1205C4.94627 25.8013 5.43908 26.3969 6.043 26.8645C6.47465 27.2081 6.96354 27.4729 7.4872 27.6467C8.25597 27.8841 9.05673 28.0016 9.8613 27.9951C10.3647 27.9983 10.8682 28.0109 11.3719 28.0088C15.0309 27.9934 18.6897 28.0352 22.3486 27.9862C22.832 27.9757 23.3137 27.9246 23.7886 27.8334C24.6861 27.6757 25.5215 27.2696 26.2 26.6613C26.999 25.9676 27.5568 25.038 27.7931 24.0067C27.9387 23.3164 28.0082 22.6122 28.0005 21.9067V21.766C28 21.7112 27.9793 9.7855 27.9774 9.6279ZM24.7635 20.7326C24.6099 21.0926 23.8335 21.3903 22.5202 21.5932C22.397 21.6122 22.3451 21.8115 22.2739 22.1377C22.2446 22.2725 22.2147 22.4046 22.1739 22.5434C22.1617 22.6019 22.1286 22.654 22.0807 22.6898C22.0328 22.7255 21.9735 22.7426 21.9139 22.7377H21.8934C21.7676 22.7332 21.6425 22.7174 21.5196 22.6905C21.1955 22.6226 20.8655 22.5877 20.5344 22.5861C20.2963 22.5867 20.0586 22.6068 19.8238 22.6461C19.3284 22.7716 18.8675 23.007 18.4755 23.3349C17.8125 23.9008 16.9795 24.2291 16.1087 24.2677C16.0587 24.2677 16.0114 24.2659 15.9752 24.2642C15.9465 24.2666 15.9168 24.2677 15.8871 24.2677C15.0168 24.2294 14.1844 23.9013 13.522 23.3355C13.1294 23.0072 12.6681 22.7713 12.172 22.6455C11.9374 22.6062 11.6999 22.5861 11.462 22.5855C11.1307 22.589 10.8005 22.6263 10.4768 22.697C10.354 22.7256 10.229 22.7435 10.1031 22.7506C10.0397 22.7578 9.97587 22.7412 9.924 22.7041C9.87213 22.6669 9.83592 22.6118 9.8224 22.5494C9.781 22.4087 9.7513 22.2724 9.7224 22.1412C9.6508 21.8132 9.5987 21.613 9.4759 21.594C8.1626 21.3914 7.3866 21.0929 7.232 20.7314C7.2163 20.6953 7.2071 20.6567 7.2048 20.6174C7.20187 20.5654 7.21826 20.5142 7.25083 20.4736C7.28339 20.433 7.32983 20.4058 7.3812 20.3974C8.46734 20.2006 9.44604 19.6186 10.1376 18.7583C10.5183 18.3179 10.8348 17.8258 11.0776 17.2967L11.0824 17.2867C11.154 17.1695 11.1992 17.0381 11.2147 16.9016C11.2303 16.7652 11.2158 16.627 11.1724 16.4967C11.0031 16.0976 10.4424 15.9198 10.0717 15.8021C9.9796 15.773 9.8923 15.7454 9.8229 15.7177C9.4941 15.5877 8.9536 15.3136 9.0256 14.9349C9.08074 14.7923 9.17909 14.6705 9.30688 14.5865C9.43467 14.5025 9.58551 14.4606 9.7383 14.4666C9.81252 14.4649 9.8862 14.4796 9.9541 14.5096C10.2309 14.6514 10.535 14.7318 10.8457 14.7451C11.0304 14.7583 11.2133 14.7024 11.3591 14.5882C11.3494 14.4129 11.3388 14.2377 11.3273 14.0626C11.1585 12.8788 11.2307 11.6731 11.5395 10.5179C11.9028 9.68882 12.5022 8.98512 13.263 8.49464C14.0238 8.00417 14.9122 7.74865 15.8173 7.76C15.9353 7.759 16.0533 7.7579 16.1712 7.7567C17.0777 7.74512 17.9675 8.00075 18.7296 8.49169C19.4917 8.98264 20.0923 9.68714 20.4565 10.5173C20.7653 11.6736 20.8374 12.8803 20.6683 14.0651L20.6647 14.1225C20.6547 14.2854 20.6447 14.4395 20.6369 14.589C20.7691 14.6938 20.9339 14.7489 21.1025 14.7448C21.3952 14.7228 21.6806 14.6433 21.9425 14.5108C22.0293 14.4732 22.1231 14.4546 22.2176 14.4563C22.3249 14.4559 22.4313 14.4763 22.5309 14.5163L22.5359 14.5182C22.6486 14.545 22.7507 14.6048 22.8293 14.69C22.9078 14.7752 22.9592 14.8818 22.9768 14.9963C22.9802 15.1798 22.8438 15.4541 22.1729 15.7189C22.1042 15.7461 22.0165 15.774 21.924 15.8033C21.5528 15.9211 20.9928 16.0989 20.8235 16.4977C20.7801 16.6279 20.7657 16.766 20.7812 16.9023C20.7968 17.0386 20.8419 17.1699 20.9135 17.287L20.9183 17.297C21.2539 18.0637 21.7622 18.7425 22.4035 19.2803C23.0447 19.8181 23.8016 20.2005 24.615 20.3975C24.6664 20.406 24.7128 20.4331 24.7453 20.4737C24.7779 20.5143 24.7943 20.5655 24.7914 20.6175C24.7889 20.6572 24.7794 20.6962 24.7635 20.7326Z" fill="white"/>
</svg>
