<svg width="61" height="32" viewBox="0 0 61 32" fill="none" xmlns="http://www.w3.org/2000/svg">
<g clip-path="url(#clip0)">
<path d="M2.12472 16.9697C2.07084 16.9697 2.01697 16.9158 1.90923 16.9158H1.74761C1.63987 16.9158 1.586 16.862 1.53212 16.862C1.47825 16.8081 1.42438 16.7542 1.37051 16.7542C1.20889 16.7542 0.885659 16.3232 0.831787 16.0539C0.831787 15.8384 0.831787 15.6229 0.831787 15.4613C0.831787 15.0842 0.885659 14.6532 0.993403 14.3838C1.31664 13.3064 1.53212 12.7677 1.74761 12.0673C1.90923 11.6364 2.07084 11.0976 2.17859 10.8822C2.3402 10.3973 2.55569 9.96633 2.60956 9.85859C2.66344 9.85859 2.66344 9.75084 2.66344 9.69697C2.66344 9.6431 2.82505 9.21212 2.98667 8.72727C3.20216 8.24242 3.36377 7.81145 3.36377 7.81145C3.36377 7.75758 3.41765 7.59596 3.52539 7.48822C3.57926 7.3266 3.74088 6.9495 3.90249 6.51852C4.17185 5.65657 4.97994 3.34007 5.19542 2.85522C5.2493 2.63973 5.35704 2.3165 5.35704 2.15488L5.68027 1.23906C5.78802 0.969697 5.89576 0.592593 5.89576 0.484848C5.89576 0.26936 5.94963 0.215488 6.16512 0.107744C6.21899 0.0538721 6.27286 0 6.38061 0L6.48835 0.0538721C6.54222 0.107744 6.75771 0.107744 6.91933 0.161616C7.08095 0.161616 7.40418 0.215488 7.56579 0.26936C7.72741 0.323232 7.9429 0.323232 8.10451 0.323232L9.02034 0.26936H9.2897C9.34357 0.26936 9.50519 0.323232 9.6668 0.323232L11.0136 0.377104C11.2291 0.377104 11.4446 0.377104 11.4985 0.323232H11.7678C11.8217 0.323232 11.8756 0.323232 11.8756 0.323232C11.8756 0.377104 11.9833 0.377104 12.091 0.377104H12.1449C12.3065 0.377104 12.6836 0.646465 12.6836 0.808081C12.6298 1.02357 12.2527 1.3468 11.9833 1.3468C11.9294 1.3468 11.8756 1.3468 11.8756 1.29293C11.8217 1.18519 11.6601 1.13131 11.4985 1.13131H11.283C11.2291 1.13131 11.1213 1.13131 11.0675 1.13131H10.6365C10.5288 1.13131 10.421 1.13131 10.3133 1.13131C10.2055 1.13131 10.0978 1.13131 10.0439 1.18519C9.99004 1.18519 9.88229 1.23906 9.82842 1.23906H9.61293C9.2897 1.23906 8.15839 1.3468 8.10451 1.40067V1.45455V1.61616C8.10451 2.10101 7.29643 4.95623 6.9732 5.9798L6.5961 7.00337C6.5961 7.00337 6.64997 7.00337 6.75771 7.00337C6.91933 7.00337 7.08095 7.00337 7.40418 6.94949L8.10451 6.89562C8.32 6.89562 8.42775 6.89562 8.53549 6.94949L9.02034 7.05724C9.12808 7.05724 9.23583 7.11111 9.2897 7.21885L9.45132 7.38047C9.50519 7.38047 9.50519 7.43434 9.50519 7.43434C9.50519 7.48822 9.45132 7.48822 9.39744 7.59596C9.23583 7.75758 8.96647 7.86532 8.69711 7.86532C8.58936 7.86532 8.48162 7.86532 8.42775 7.81145C8.26613 7.75758 8.10451 7.75758 7.83515 7.75758C7.51192 7.75758 7.13482 7.81145 6.81159 7.91919L6.32674 8.02694C6.05738 8.83502 5.89576 9.21212 5.78802 9.6431L4.87219 12.0135L4.44121 13.1448C4.33347 13.468 4.22573 13.8451 4.17185 13.9529C4.11798 14.0606 4.01024 14.4377 3.90249 14.7609C3.36377 16.5387 3.36377 16.5926 2.77118 16.862C2.44795 17.0236 2.3402 17.0774 2.28633 17.0774C2.17859 17.0236 2.12472 17.0236 2.12472 16.9697ZM10.421 15.4613C10.5288 15.5152 10.6904 15.5152 10.7981 15.5152C11.0136 15.5152 11.283 15.4613 11.4985 15.2997C11.8756 15.0842 11.9833 14.9226 11.9833 14.7609C11.9833 14.7071 12.1988 14.4916 12.4143 14.2761C12.6298 14.0606 12.8453 13.7912 12.8453 13.7374C12.8453 13.6296 13.0607 13.3603 13.2762 13.1448C13.4917 12.9293 13.7072 12.6599 13.7611 12.4983C14.0843 11.798 14.2459 11.5825 14.4614 11.3131C14.6769 11.0438 15.1079 10.2896 15.1079 10.1279L15.0001 10.1818C15.0001 10.1818 15.054 10.0741 15.1618 9.91246C15.3234 9.58923 15.3772 9.53535 15.3772 8.88889C15.3772 8.35017 15.3234 8.13468 15.2156 7.81145L15.0001 7.3266C15.0001 7.27273 14.8924 7.11111 14.8385 6.94949C14.7846 6.68013 14.5692 6.46465 14.0304 5.9798C13.815 5.76431 13.0069 5.33333 12.8991 5.33333C12.8453 5.33333 12.6298 5.27946 12.4682 5.17172C12.2527 5.06397 11.9833 5.0101 11.6601 5.0101C11.3368 5.0101 10.9597 5.06397 10.5826 5.27946C10.4749 5.33333 10.3671 5.38721 10.3671 5.44108C10.3671 5.49495 10.2594 5.60269 10.1517 5.65657C10.0439 5.71044 9.88229 5.87205 9.82842 5.9798C9.77455 6.08754 9.72068 6.14141 9.72068 6.19529C9.72068 6.19529 9.72068 6.24916 9.77455 6.30303C9.82842 6.3569 9.82842 6.3569 9.93616 6.3569H9.99004C10.0439 6.3569 10.0439 6.3569 10.0439 6.41077C10.0439 6.46465 9.99004 6.51852 9.93616 6.57239C9.88229 6.62626 9.77455 6.78788 9.72068 6.94949C9.45132 7.43434 9.34357 7.64983 9.23583 7.75758C9.18196 7.81145 9.07421 7.91919 9.07421 7.97306C9.07421 8.02694 9.02034 8.24242 8.9126 8.40404C8.69711 8.88889 8.26613 9.85859 8.15839 10.3434C8.10451 10.5589 8.05064 10.9899 8.05064 11.4209C8.05064 11.798 8.05064 12.1751 8.10451 12.4444C8.21226 13.037 8.37388 13.6835 8.42775 13.6835C8.42775 13.6835 8.48162 13.7374 8.48162 13.8451C8.48162 13.899 8.53549 14.0067 8.53549 14.0067C8.53549 14.0067 8.64324 14.0606 8.69711 14.1684C8.80485 14.4377 9.39744 15.0842 9.50519 15.0842C9.55906 15.0842 9.72068 15.138 9.77455 15.2458C9.82842 15.3535 9.93616 15.4074 10.0978 15.4074C10.2055 15.4074 10.3671 15.4613 10.421 15.4613ZM11.6062 12.7138C11.0675 13.2525 10.9059 13.4141 10.852 13.4141H10.7981C10.7442 13.4141 10.7442 13.2525 10.7442 13.0909C10.7442 12.7677 10.7981 12.3906 10.852 12.1751C11.0136 11.6902 11.4446 10.6667 11.4985 10.6128C11.5523 10.5589 11.5523 10.3973 11.5523 10.2896C11.5523 10.1279 11.6062 9.91246 11.6601 9.80471C11.7139 9.69697 11.8756 9.31987 12.091 8.94276C12.2527 8.56566 12.522 8.13468 12.6298 8.02694C12.8991 7.75758 13.0607 7.38047 13.0607 7.11111C13.0607 7.00337 13.0607 6.89562 13.1146 6.84175C13.1146 6.78788 13.1685 6.78788 13.2224 6.78788C13.384 6.78788 13.6533 7.00337 13.815 7.27273C13.8688 7.43434 14.0304 7.64983 14.0843 7.7037C14.1921 7.86532 14.2459 7.97306 14.2459 8.51178C14.2459 9.15825 14.2459 9.15825 14.0304 9.37374C13.9227 9.53535 13.8688 9.6431 13.8688 9.69697C13.8688 9.75084 13.8688 9.80471 13.815 9.80471C13.815 9.80471 13.6533 10.0202 13.5456 10.2357C13.4378 10.4512 13.2762 10.6667 13.2762 10.6667C13.2762 10.6667 13.1146 10.8283 13.0607 10.9899C12.953 11.2054 12.7375 11.5286 12.5759 11.6902C12.3065 11.8519 12.1449 12.0135 12.1449 12.0673C12.1449 12.0673 11.9294 12.3906 11.6062 12.7138ZM16.5624 15.7306C16.724 15.7306 16.8318 15.6768 16.8857 15.5152C16.9395 15.4074 17.0473 15.1919 17.0473 15.0842C17.155 14.7609 17.3166 14.2761 17.4244 14.2761C17.4783 14.2761 17.7476 13.8451 17.8554 13.6835C17.8554 13.6296 18.017 13.468 18.1786 13.2525L18.5018 12.8754C18.5018 12.8754 18.5557 12.7138 18.6634 12.6061C18.7712 12.4444 18.8789 12.2828 18.9328 12.1751L19.1483 11.9057C19.256 11.8519 19.4176 11.5825 20.3335 10.2896C20.4951 10.0202 20.7106 9.75084 20.8183 9.6431L21.1416 9.31987C21.1954 9.21212 21.3032 9.15825 21.3032 9.15825C21.357 9.15825 21.4109 9.26599 21.4109 9.48148V9.53535C21.4109 9.85859 21.6264 10.5051 21.8419 10.7744C21.8958 10.8822 22.0035 11.0438 22.0035 11.1515C22.0574 11.2593 22.1112 11.3131 22.219 11.3131C22.3267 11.3131 22.4884 11.367 22.5961 11.4747C22.7577 11.6364 22.9732 11.6902 23.2426 11.6902C23.4042 11.6902 23.5658 11.6364 23.7274 11.5286C23.889 11.4209 23.9429 11.367 23.9429 11.2593V10.9899C23.9429 10.7744 23.9968 10.6128 24.1045 10.2896C24.2661 9.96633 24.32 9.58923 24.32 9.37374V9.21212C24.32 8.99663 24.2661 8.94276 24.0506 8.6734C23.889 8.51178 23.7813 8.35017 23.7274 8.24242C23.7274 8.18855 23.5119 8.13468 23.3503 8.08081C23.1348 8.02694 22.9732 7.97306 22.9193 7.86532C22.8116 7.75758 22.7577 7.7037 22.65 7.7037H22.4345C22.219 7.7037 21.9496 7.81145 21.788 7.86532C21.6264 7.91919 21.4648 8.02694 21.4648 8.02694C21.3032 8.02694 20.6567 8.78115 20.6567 8.94276C20.6567 9.05051 20.6028 9.15825 20.549 9.15825C20.4412 9.21212 19.256 10.8283 19.256 10.8822C19.256 10.936 19.2022 10.9899 19.1483 11.0438C19.0944 11.0976 18.9867 11.2054 18.9328 11.3131L18.7173 11.5825C18.6096 11.798 18.5018 11.8519 18.3402 11.8519C18.2863 11.8519 18.2325 11.8519 18.2325 11.798L18.2863 11.5825C18.3941 11.0976 18.4479 10.8822 18.7712 10.1279L19.2022 8.99663C19.256 8.78115 19.3638 8.51178 19.4176 8.45791C19.4715 8.35017 19.5254 8.18855 19.5254 8.08081C19.5254 7.81145 19.256 7.21885 19.0405 6.94949C18.8251 6.73401 18.7712 6.68013 18.5557 6.68013C18.3941 6.68013 18.2863 6.68013 18.2863 6.62626C18.2863 6.57239 17.9631 6.46465 17.4783 6.41077H17.3705C17.3166 6.41077 17.2628 6.46465 17.2089 6.57239L16.9934 6.94949C16.8318 7.21885 16.4547 8.18855 16.3469 8.45791C16.2931 8.61953 16.1853 8.94276 16.0237 9.21212C15.916 9.48148 15.7543 9.96633 15.6466 10.3434C15.5389 10.6667 15.3772 11.1515 15.2156 11.4747C14.8924 12.229 14.623 12.9832 14.5692 13.3603V13.5758C14.5692 13.7374 14.623 13.8451 14.7308 14.1145C15.054 14.8687 15.2695 15.2458 15.3772 15.2458C15.5389 15.2997 15.8621 15.5152 15.916 15.569C15.916 15.6229 16.0237 15.6229 16.1315 15.6229L16.5624 15.7306ZM25.4513 15.9461C25.4513 15.9461 25.5052 15.9461 25.6129 15.9461C25.9362 15.9461 26.1517 15.8923 26.7981 15.7845L26.852 15.569C26.9059 15.4613 27.0675 15.138 27.2291 14.9226C27.4446 14.7071 27.6601 14.3838 27.7139 14.2222C27.8217 14.0067 27.9294 13.899 27.9833 13.899C27.9833 13.899 28.0372 13.899 28.0372 13.9529C28.0372 14.0067 27.9833 14.1145 27.8756 14.2222C27.7139 14.4916 27.5523 14.7609 27.5523 14.8687V14.9226C27.6062 14.9226 27.7678 14.7071 27.9294 14.33C28.0372 14.1145 28.1988 13.8451 28.1988 13.8451L28.3604 13.6296C28.3604 13.5758 28.5759 13.2525 28.7375 12.9832C29.2762 12.1751 29.8688 11.3131 30.0304 10.936C30.1382 10.7205 30.2998 10.5051 30.3537 10.4512C30.4614 10.3973 30.5692 10.2357 30.623 10.1279C30.7308 9.85859 31.1079 9.26599 31.2156 9.21212C31.2156 9.21212 31.2695 9.21212 31.2695 9.26599C31.2695 9.31987 31.2156 9.53535 31.1079 9.6431C31.054 9.69697 31.0001 9.80471 31.0001 9.85859C31.0001 9.91246 31.0001 10.0202 30.9463 10.0741C30.7847 10.5051 30.1921 12.1751 30.0843 12.5522C29.8688 13.4141 29.815 13.7374 29.815 14.0067V14.2761C29.8688 14.7071 29.8688 14.7609 30.0843 14.9764C30.3537 15.2458 30.5153 15.2997 30.6769 15.2997H30.7308C30.8385 15.2997 30.9463 15.3535 30.9463 15.3535C30.9463 15.3535 31.0001 15.4074 31.1618 15.4074H31.4311H32.1315H32.1853L32.1315 15.2997C32.1315 15.1919 32.2392 15.138 32.4008 14.8687L32.5624 15.0303C32.6163 15.0842 32.724 15.138 32.7779 15.138C32.9395 15.0842 33.2628 14.5993 33.6937 13.899C33.9631 13.3603 34.3941 12.7138 34.9328 12.1751C35.2022 11.8519 36.118 10.5051 36.3335 10.1818C36.4951 9.91246 36.6028 9.80471 36.6028 9.80471C36.6567 9.80471 36.6567 9.85859 36.6567 9.91246C36.6567 10.1279 36.549 10.5589 36.3335 11.2054C36.0641 12.0135 35.9564 12.3367 35.9025 12.6061C35.9025 12.7677 35.8486 12.8754 35.8486 12.9293C35.7948 13.0909 35.7409 13.468 35.7409 13.7912C35.7409 14.1145 35.7948 14.3838 35.8486 14.3838C35.9025 14.3838 35.9025 14.4377 35.9564 14.5455C36.0102 14.7609 36.4951 15.2458 36.7106 15.3535C36.8183 15.4074 36.9799 15.4613 37.0877 15.5152H37.1954C37.5187 15.5152 38.1651 15.3535 38.219 15.2458C38.219 15.1919 38.3806 15.0303 38.4884 14.9764C38.5961 14.9226 38.7038 14.7609 38.7038 14.7071C38.7038 14.6532 38.8116 14.4916 38.9193 14.3838C39.0271 14.2761 39.1887 14.1145 39.1887 14.0606C39.1887 14.0067 39.2426 14.0067 39.3503 14.0067C39.4042 14.0067 39.5658 13.8451 39.6197 13.7374C40.5355 12.5522 41.0203 11.9596 41.0742 11.9596C41.1281 11.9596 41.6129 11.3131 41.8284 10.9899C41.8823 10.8822 41.9362 10.7744 41.9362 10.6128C41.9362 10.3973 41.9362 10.4512 41.9362 10.2357L41.5591 10.7744C41.2897 11.0976 41.0742 11.4209 41.0203 11.4209C40.9665 11.4209 40.2661 12.1751 39.6197 13.037C39.4042 13.3064 39.1887 13.5758 39.1348 13.5758C39.0809 13.5758 39.0271 13.6296 39.0271 13.6835C39.0271 13.7374 38.9732 13.7374 38.9193 13.7374C38.8655 13.7374 38.8655 13.7374 38.8655 13.6296C38.8655 13.5219 38.9193 13.3603 39.0271 13.037L39.2964 12.1212C39.3503 11.9057 39.5119 11.4209 39.6197 11.0438C39.7813 10.6128 39.889 10.2357 39.889 10.0741C39.889 9.91246 39.9429 9.69697 40.0506 9.53535C40.1045 9.37374 40.2123 8.99663 40.32 8.6734C40.3739 8.40404 40.3739 8.24242 40.3739 8.13468C40.3739 8.02694 40.3739 7.91919 40.32 7.81145C40.1584 7.7037 40.1045 7.54209 40.0506 7.54209C39.9429 7.43434 39.6197 7.38047 39.2964 7.38047C39.1348 7.38047 39.0271 7.38047 38.8655 7.38047C37.7341 7.59596 37.6803 7.59596 37.3032 8.08081C37.1416 8.2963 36.9799 8.51178 36.9261 8.51178C36.9261 8.51178 36.7644 8.6734 36.7106 8.78114C36.6028 8.94276 36.4412 9.0505 36.3335 9.0505C36.2257 9.0505 36.118 9.10438 36.0641 9.21212C36.0102 9.26599 35.9025 9.48148 35.7409 9.69697C35.5793 9.91246 35.4715 10.1279 35.4715 10.1818C35.4715 10.2896 34.6096 11.4747 33.4244 12.9832C33.155 13.3603 32.9934 13.468 32.9395 13.468H32.8857C32.8857 13.4141 32.9395 13.1987 33.0473 12.9293C33.155 12.6599 33.2628 12.4444 33.2628 12.4444C33.2628 12.3906 33.3166 12.229 33.4244 12.0135C33.4783 11.798 33.586 11.5825 33.586 11.5825C33.586 11.5286 33.6399 11.3131 33.7476 11.1515C33.8554 10.936 33.9631 10.7205 33.9631 10.6128C33.9631 10.5051 34.1247 10.2357 34.1786 9.96633C34.2863 9.69697 34.3402 9.48148 34.3402 9.42761L34.5018 8.72727C34.5557 8.45791 34.6096 8.24242 34.6096 8.08081C34.6096 7.81145 34.5018 7.64983 34.2863 7.48822C34.1247 7.3266 34.017 7.27273 33.8015 7.27273C33.6937 7.27273 33.586 7.27273 33.4244 7.3266H33.2628H33.1012L32.6163 7.38047C31.9698 7.48822 31.1618 7.86532 30.8924 8.13468C30.7308 8.2963 30.623 8.35017 30.4614 8.35017C30.2998 8.35017 30.1921 8.40404 30.1382 8.51178C30.0843 8.61953 29.9766 8.72727 29.9766 8.72727C29.9766 8.78115 29.9227 8.88889 29.815 8.99663C29.7072 9.15825 29.4917 9.48148 29.384 9.75084C29.2224 10.0202 29.0607 10.3434 29.0069 10.4512C28.953 10.5589 28.8991 10.6667 28.8991 10.7205C28.8991 10.7744 28.8991 10.8283 28.8453 10.8283C28.7914 10.8283 28.5759 11.2054 28.2527 11.6364C27.9833 12.1212 27.7678 12.4444 27.7139 12.4444C27.6601 12.4444 27.6062 12.6061 27.5523 12.7138C27.4985 12.8754 27.3907 12.9832 27.3907 12.9832C27.3907 12.9832 27.3368 12.9832 27.3368 12.8754C27.3368 12.7677 27.3907 12.5522 27.4446 12.229L27.6601 11.5286C27.7139 11.2054 28.091 10.0202 28.1449 9.69697C28.1988 9.53535 28.2527 9.42761 28.2527 9.31987C28.2527 9.26599 28.2527 9.15825 28.3065 9.15825C28.3604 9.15825 28.3604 9.05051 28.3604 8.99663V8.94276C28.3604 8.83502 28.4143 8.6734 28.4682 8.56566C28.522 8.40404 28.5759 8.13468 28.5759 7.91919C28.5759 7.75758 28.6298 7.48822 28.7375 7.38047C28.7914 7.27273 28.7914 7.16498 28.7914 7.05724C28.7914 7.00337 28.7914 6.89562 28.7375 6.78788C28.6836 6.62626 28.6298 6.41077 28.5759 6.3569C28.2527 6.08754 28.091 6.03367 27.9833 6.03367H27.9294C27.8756 6.03367 27.8756 6.03367 27.8217 5.9798C27.8217 5.92593 27.8217 5.92593 27.7678 5.92593C27.7678 5.92593 27.7139 5.92593 27.6601 5.9798C27.6062 5.9798 27.5523 5.9798 27.4985 5.9798C27.4446 5.9798 27.4446 5.9798 27.3907 5.9798C27.3368 5.9798 27.283 5.92593 27.1752 5.92593H26.9597L26.6904 6.03367H26.6365C26.5826 6.08754 26.4749 6.08754 26.421 6.08754C26.3133 6.08754 26.2594 6.14141 26.1517 6.30303C26.0439 6.46465 25.99 6.57239 25.99 6.62626C25.99 6.68013 25.8284 7.05724 25.7207 7.43434C25.5591 7.86532 25.4513 8.18855 25.4513 8.24242L25.2897 8.88889C25.0203 9.6431 24.751 10.7205 24.751 10.8822C24.751 10.936 24.6971 11.0438 24.6971 11.1515C24.6432 11.2054 24.5355 11.5286 24.5355 11.798L24.3739 12.4983C24.2661 12.8215 24.2123 13.2525 24.2123 13.7374C24.2123 14.2761 24.2661 14.7609 24.3739 15.0303C24.5355 15.4613 24.8587 15.7306 25.1281 15.7845C25.2358 15.8384 25.3974 15.8923 25.4513 15.9461ZM18.5557 30.7609C18.6096 30.7609 18.7173 30.7609 18.8789 30.7609L19.687 30.7071C19.9564 30.7071 20.118 30.6532 20.4412 30.4916C20.9799 30.2222 21.1954 30.1145 21.5187 29.7374C21.9496 29.3064 22.1112 29.037 22.219 28.7138L22.3806 28.1212C22.3806 28.0135 22.4345 27.8519 22.4345 27.6902C22.4345 26.9899 22.3267 26.5051 22.1112 25.4815C22.1112 25.3199 22.0574 24.9966 22.0574 24.6195C22.0574 23.4343 22.1112 23.1111 22.219 22.734L22.1651 22.4108C22.1651 22.1953 22.2729 22.0337 22.4884 21.8721C22.5961 21.7643 22.7038 21.7104 22.8116 21.7104C22.8655 21.7104 22.8655 21.7104 22.8655 21.7643C22.8655 21.8182 22.9193 21.9259 22.9732 21.9798C23.1348 22.1414 23.1887 22.4646 23.1887 22.8956V23.4882H23.4042C23.5658 23.4882 23.6197 23.4882 23.6735 23.3266C23.7274 23.165 23.7813 23.0572 23.7813 22.8418C23.7813 22.7879 23.7813 22.6801 23.7274 22.6263C23.6735 22.5185 23.6735 22.3569 23.6197 22.1953C23.6197 21.8721 23.2964 21.4411 22.9193 21.2795C22.5422 21.1178 22.3806 21.1178 22.1651 21.1178C21.788 21.1178 21.6803 21.1717 20.9799 21.2795C20.8183 21.3333 20.2796 21.7104 20.2796 21.8182C20.2796 21.8182 20.2257 21.9259 20.1719 21.9798C20.0102 22.0875 19.7409 23.2727 19.6331 23.9192V24.0808C19.6331 24.2963 19.687 24.6734 19.7948 25.2121C19.9025 25.7508 19.9564 26.0741 19.9564 26.3973V26.8283C19.9025 27.367 19.9025 27.5286 19.687 27.8519C19.1483 28.8754 18.7712 29.1987 18.1247 29.5758C17.7476 29.7374 17.6399 29.7912 17.155 29.7912H16.8318C16.6163 29.7912 16.5624 29.7912 16.4008 29.6296C16.2931 29.5219 16.1315 29.3603 16.0776 29.2525C16.0237 29.1448 15.9698 28.9832 15.916 28.9293C15.8621 28.8754 15.8621 28.6599 15.8621 28.4444V28.2828C15.916 27.0976 17.2628 25.6431 17.2628 25.5892L17.2089 25.5354V25.4815C17.2089 25.4276 17.2089 25.4276 17.1011 25.4276H16.9934C16.9934 25.4276 15.4311 26.936 15.4311 28.3367V28.5522C15.485 28.8754 15.6466 29.6296 16.1853 30.0606C16.2392 30.0606 16.3469 30.2222 16.5086 30.33C16.724 30.4377 16.9395 30.5993 17.0473 30.6532C17.2089 30.8148 17.2628 30.8148 17.8015 30.8148C18.1247 30.7071 18.448 30.7071 18.5557 30.7609ZM26.2594 31.2997C26.9597 31.2458 27.3907 30.9764 27.4985 30.5993C27.5523 30.4377 27.6601 30.5993 28.0372 30.1684C28.1449 30.0606 28.3065 30.0067 28.3065 29.9529C28.4143 29.8451 28.522 29.7374 28.6298 29.5758C29.0069 29.1448 29.384 28.8215 29.4917 28.7138C29.6533 28.6599 31.6466 26.6667 31.6466 26.5589C31.6466 26.5051 31.7543 26.3973 31.8621 26.3434C31.9698 26.2896 32.0776 26.1279 32.0776 26.1279C32.0776 26.0741 32.4008 25.8047 32.5086 25.7508C32.5624 25.697 32.6163 25.6431 32.6163 25.5892C32.6163 25.5354 32.5624 25.4276 32.4008 25.4276H32.3469H32.2392C32.2392 25.4276 32.1853 25.4276 32.1315 25.4815C32.0237 25.5354 31.916 25.6431 31.916 25.6431C31.916 25.697 31.8621 25.697 31.8621 25.697C31.8082 25.697 31.7005 25.7508 31.5927 25.8586C31.3772 26.0741 29.2762 27.6902 28.8991 27.9596C28.6298 28.1212 28.3604 28.3367 28.3604 28.3906C28.3065 28.4444 28.1449 28.5522 28.0372 28.6061C27.8217 28.7138 27.5523 28.9293 26.9597 29.4141C26.5826 29.7374 26.3671 29.899 26.2055 29.899C26.1517 29.899 26.0978 29.7912 26.0978 29.468C26.0978 29.2525 26.0978 28.9293 26.1517 28.4983C26.2055 27.9057 26.2594 27.7441 26.5288 27.2593C26.6904 26.936 26.852 26.6667 26.852 26.6128C26.9059 26.6128 26.9059 26.5589 26.9059 26.5589C26.9059 26.3973 27.1752 25.9125 27.283 25.8047C27.4446 25.697 27.7139 25.0505 27.8756 24.6734C27.9294 24.5118 28.0372 24.2424 28.1988 24.1347C28.3065 23.9731 28.4143 23.8114 28.4143 23.7576C28.4143 23.7037 28.4682 23.596 28.5759 23.5421C28.6836 23.4882 28.7914 23.2727 28.8991 23.165C28.953 23.0572 29.1146 22.9495 29.1146 22.9495C29.2762 22.9495 29.4378 23.4882 29.4378 24.0269C29.4378 24.2963 29.4917 24.5118 29.4917 24.5657C29.5456 24.5657 29.6533 24.4579 29.7072 24.3502C29.815 24.1886 29.9227 24.0808 29.9766 24.0808C30.0304 24.0269 30.0304 23.8114 30.0304 23.5421C30.0304 23.2727 30.0304 22.8956 29.9766 22.734C29.9227 22.4108 29.815 22.2492 29.7072 22.0875C29.5456 21.9798 29.4378 21.8721 29.384 21.8721C29.3301 21.8721 29.2224 21.8721 29.1685 21.8182C29.0607 21.7104 28.2527 21.5488 27.6601 21.495H27.3368C27.0675 21.495 26.9059 21.5488 26.9059 21.6566L26.9597 21.7643C26.9597 21.7643 26.9597 21.8182 26.9059 21.8182L26.6904 21.7643C26.5288 21.7643 26.421 21.8721 25.99 22.3569C25.6668 22.6801 25.3436 23.0572 25.2897 23.165C25.2358 23.2727 25.1281 23.4343 25.0742 23.4882C25.0203 23.5421 24.9665 23.596 24.9665 23.6498C24.9665 23.7037 24.9126 23.8114 24.8587 23.8653C24.751 23.9731 24.6432 24.1886 24.0506 25.5354C23.8352 26.0741 23.6735 26.936 23.6735 27.6364C23.6735 27.8519 23.6735 28.0673 23.7274 28.229C23.7813 28.6061 23.889 28.8754 24.1584 29.4141C24.5894 30.2761 24.9126 30.7071 25.0203 30.7071C25.0742 30.7071 25.182 30.7609 25.182 30.8687C25.2358 30.9226 25.4513 31.0842 25.6668 31.1919C25.9362 31.2997 26.0978 31.3535 26.2055 31.3535H26.2594V31.2997ZM36.3335 31.5152C36.4951 31.8384 36.4951 32 36.549 32C36.7106 32 36.7644 31.4074 36.9799 31.4074H37.0338C37.1416 31.4074 37.4109 31.138 37.4648 30.9226C37.5187 30.7609 37.6803 30.5455 38.219 30.1145C38.3267 30.0067 38.4345 29.899 38.4345 29.8451C38.4345 29.7912 38.4884 29.6835 38.5961 29.5758C38.7577 29.3603 39.1887 28.2828 39.3503 28.0673C39.5119 27.8519 39.7813 27.0976 39.7813 26.936C39.7813 26.7744 40.2123 26.2357 40.2123 25.8047C40.2123 25.3199 39.5658 24.404 39.1887 24.404H39.0809C38.9193 24.404 38.65 24.2424 38.65 24.1347C38.65 24.0808 38.5961 24.0269 38.4884 24.0269C38.2729 24.0269 38.2729 23.8653 38.1651 23.8653C38.0035 23.8653 37.8419 23.9731 37.7341 24.0808C37.5725 24.2963 37.4648 24.2424 37.1954 24.5657L35.687 26.0202C35.5254 26.1818 35.3638 26.2896 35.256 26.2896C35.0944 26.2896 34.8251 26.7205 34.7712 26.7205C34.7712 26.7205 34.7712 26.7205 34.7712 26.6667C34.7712 26.5589 34.8251 26.3434 35.0405 25.9663C35.3099 25.266 35.4715 24.835 35.5254 24.7273C35.687 24.5118 36.2796 22.8418 36.2796 22.734C36.2796 22.6263 36.4951 21.8182 36.6028 21.495C36.8722 20.7946 37.0338 20.2559 37.0338 19.8249C37.0338 19.1246 36.4412 18.4242 36.2257 18.4242C36.0102 18.4242 35.5793 17.9394 35.1483 17.9394H34.7712V18.4781C34.7712 18.8552 34.6096 18.963 34.5557 19.2323C34.4479 19.5556 34.2863 19.5017 34.0708 20.3636C34.017 20.633 33.6399 21.2795 33.5321 21.5488C33.4244 21.8182 32.9934 22.6801 32.9934 22.6801C32.9934 22.734 31.9698 25.1582 31.9698 25.3199C31.7543 25.8586 31.5927 26.0741 31.3234 27.0976C30.9463 28.2828 30.7308 28.7138 30.7308 29.3064V29.7374C30.7846 30.3838 30.8385 30.4916 31.2695 30.8687C31.5389 31.0842 31.6466 31.138 31.916 31.138C32.9395 31.0842 32.9934 30.8148 33.1012 30.4916L33.3166 29.8451C33.3705 29.4141 33.5321 29.5219 33.7476 29.037C33.9631 28.4444 34.8251 27.6364 35.256 27.0438C35.4176 26.8283 35.4176 26.8283 35.7409 26.5051C36.1719 26.0741 36.3873 25.8586 36.4951 25.8586C36.549 25.8586 37.1416 25.1044 37.2493 25.1044C37.2493 25.1044 37.3032 25.1044 37.3032 25.1583C36.3873 27.367 35.9025 28.2828 35.9025 29.1987C36.118 30.8687 36.118 31.2458 36.3335 31.5152ZM43.2291 30.5455C43.3368 30.5993 43.4985 30.5993 43.6062 30.5993C43.8217 30.5993 44.091 30.5455 44.3065 30.3838C44.6836 30.1684 44.7914 30.0067 44.7914 29.8451C44.7914 29.7912 45.0069 29.5758 45.2224 29.3603C45.4379 29.1448 45.6533 28.8754 45.6533 28.8215C45.6533 28.7138 45.8688 28.4444 46.0843 28.229C46.2998 28.0135 46.5153 27.7441 46.5692 27.5825C46.8924 26.8822 47.054 26.6667 47.2695 26.3973C47.485 26.1279 47.916 25.3737 47.916 25.2121L47.8082 25.266C47.8082 25.266 47.8621 25.1583 47.9698 24.9966C48.1315 24.6734 48.1853 24.6195 48.1853 23.9731C48.1853 23.4343 48.1315 23.2189 48.0237 22.8956L47.8082 22.4108C47.8082 22.3569 47.7005 22.1953 47.6466 22.0337C47.5927 21.7643 47.3772 21.5488 46.8385 21.064C46.623 20.8485 45.815 20.4175 45.7072 20.4175C45.6533 20.4175 45.4378 20.3636 45.2762 20.2559C45.0607 20.1481 44.7914 20.0943 44.4682 20.0943C44.1449 20.0943 43.7678 20.1481 43.3907 20.3636C43.283 20.4175 43.1752 20.4714 43.1752 20.5253C43.1752 20.5791 43.0675 20.6869 42.9597 20.7407C42.852 20.7946 42.6904 20.9562 42.6365 21.064C42.5826 21.1717 42.5288 21.2256 42.5288 21.2795C42.5288 21.2795 42.5288 21.3333 42.5826 21.3872C42.6365 21.4411 42.6365 21.4411 42.7442 21.4411H42.7981C42.852 21.4411 42.852 21.4411 42.852 21.495C42.852 21.5488 42.7981 21.6027 42.7442 21.6566C42.6904 21.7104 42.5826 21.8721 42.5288 22.0337C42.2594 22.5185 42.1517 22.734 42.0439 22.8418C41.99 22.8956 41.8823 23.0034 41.8823 23.0572C41.8823 23.1111 41.8284 23.3266 41.7207 23.4882C41.5052 23.9731 41.0742 24.9428 40.9665 25.4276C40.9126 25.6431 40.8587 26.0741 40.8587 26.5051C40.8587 26.8822 40.8587 27.2593 40.9126 27.5286C41.0203 28.1212 41.182 28.7677 41.2358 28.7677C41.2358 28.7677 41.2897 28.8216 41.2897 28.9293C41.2897 28.9832 41.3436 29.0909 41.3436 29.0909C41.3974 29.0909 41.4513 29.1448 41.5052 29.2525C41.6129 29.5219 42.2055 30.1684 42.3133 30.1684C42.3671 30.1684 42.5288 30.2222 42.5826 30.33C42.6365 30.4377 42.7442 30.4916 42.9059 30.4916C42.9597 30.4916 43.1213 30.5455 43.2291 30.5455ZM43.4985 19.2323C43.5523 19.2323 43.6062 19.1785 43.6062 19.1246C43.6062 19.0707 43.6062 19.0168 43.6601 19.0168L43.7139 19.0707C43.7678 19.1246 43.8756 19.1785 43.9833 19.1785C44.1449 19.1785 44.1988 19.1246 44.1988 18.963L44.3604 18.6397C44.4143 18.5859 44.4143 18.4781 44.4143 18.4242C44.4143 18.3704 44.4143 18.2626 44.4682 18.2626C44.522 18.2626 44.5759 18.0471 44.5759 17.8855L44.8453 16.9697L44.6298 16.5926C44.2527 16.0539 44.1449 15.9461 43.8217 15.7845C43.6601 15.7306 43.5523 15.6229 43.5523 15.569L43.4985 15.5152L43.3907 15.569C43.2291 15.569 43.1752 15.569 43.1752 15.4613C43.1752 15.4074 43.1213 15.3535 42.9059 15.2997L42.2055 15.0842C42.0978 15.0842 42.0439 15.1919 41.9362 15.4613C41.8823 15.6768 41.7745 15.9461 41.7745 16C41.7745 16.0539 41.7207 16.2155 41.6129 16.3771L41.5052 16.7003C41.5052 16.8081 41.5052 16.9697 41.4513 17.1313L41.3974 17.4007C41.3974 17.5084 41.4513 17.5623 41.5591 17.67C41.7745 17.8855 41.8284 18.0471 41.8284 18.2088V18.3165L41.8823 18.3704C41.9362 18.3704 42.0978 18.532 42.3133 18.6936C42.5826 19.0168 42.7442 19.0707 43.2291 19.1785L43.4985 19.2323ZM44.3604 27.798C43.8217 28.3367 43.6601 28.4983 43.6062 28.4983H43.5523C43.4985 28.4983 43.4985 28.3367 43.4985 28.1751C43.4985 27.8519 43.5523 27.4747 43.6062 27.2593C43.7678 26.7744 44.1988 25.7508 44.2527 25.697C44.3065 25.6431 44.3065 25.4815 44.3065 25.3737C44.3065 25.2121 44.3604 24.9966 44.4143 24.8889C44.4682 24.7811 44.6298 24.404 44.8453 24.0269C45.0069 23.6498 45.2762 23.2189 45.384 23.1111C45.6533 22.8418 45.815 22.4646 45.815 22.1953C45.815 22.0875 45.815 21.9798 45.8688 21.9259C45.8688 21.8721 45.9227 21.8721 45.9766 21.8721C46.1382 21.8721 46.4075 22.0875 46.5692 22.3569C46.623 22.5185 46.7846 22.734 46.8385 22.7879C46.9463 22.9495 47.0001 23.0572 47.0001 23.596C47.0001 24.2424 47.0001 24.2424 46.7847 24.4579C46.7308 24.5657 46.623 24.7273 46.623 24.7811C46.623 24.835 46.623 24.8889 46.5692 24.8889C46.5692 24.8889 46.4075 25.1044 46.2998 25.3199C46.1921 25.5354 46.0304 25.7508 46.0304 25.7508C46.0304 25.7508 45.8688 25.9125 45.815 26.0741C45.7072 26.2896 45.4917 26.6128 45.3301 26.7744C45.1146 26.936 45.0069 27.1515 45.0069 27.2054C44.953 27.1515 44.6836 27.4747 44.3604 27.798ZM47.8621 19.2323C47.916 19.2323 47.9698 19.1785 47.9698 19.1246C47.9698 19.0707 47.9698 19.0168 48.0237 19.0168L48.0776 19.0707C48.1315 19.1246 48.2392 19.1785 48.3469 19.1785C48.5086 19.1785 48.5624 19.1246 48.5624 18.963L48.724 18.6397C48.7779 18.5859 48.7779 18.4781 48.7779 18.4242C48.7779 18.3704 48.7779 18.2626 48.8318 18.2626C48.8857 18.2626 48.9395 18.0471 48.9395 17.8855L49.2089 16.9697L48.9934 16.5926C48.6163 16.0539 48.5086 15.9461 48.1853 15.7845C48.0237 15.7306 47.916 15.6229 47.916 15.569L47.8621 15.5152L47.7005 15.569C47.5389 15.569 47.485 15.569 47.485 15.4613C47.485 15.4074 47.4311 15.3535 47.2156 15.2997L46.5692 15.0842C46.4614 15.0842 46.4075 15.1919 46.2998 15.4613C46.2459 15.6768 46.1382 15.9461 46.1382 16C46.1382 16.0539 46.0843 16.2155 45.9766 16.3771L45.8688 16.7003C45.8688 16.8081 45.8688 16.9697 45.815 17.1313L45.7611 17.4007C45.7611 17.5084 45.815 17.5623 45.9227 17.67C46.1382 17.8855 46.1921 18.0471 46.1921 18.2088V18.3165L46.2459 18.3704C46.2998 18.3704 46.4614 18.532 46.6769 18.6936C46.9463 19.0168 47.1079 19.0707 47.5927 19.1785L47.8621 19.2323ZM49.5321 30.8687C49.7476 30.8687 50.3402 30.33 50.5557 29.899C50.6096 29.7912 50.8251 29.5219 50.9867 29.2525C51.1483 28.9832 51.3099 28.7677 51.3099 28.7677C51.3099 28.7138 51.3638 28.6599 51.4176 28.6061C51.4715 28.5522 51.6331 28.3367 51.687 28.1751C51.7948 28.0135 51.9564 27.7441 52.0641 27.6364C52.1719 27.5286 52.549 26.936 52.8722 26.3434C53.5725 25.2121 54.219 24.3502 54.4345 24.2424C54.4884 24.1886 54.5422 24.1886 54.5422 24.1347V24.0808C54.5422 24.0269 54.9193 23.5421 55.0271 23.5421C55.0809 23.5421 55.0809 23.596 55.0809 23.596C55.0809 23.8114 54.9193 24.2963 54.7577 24.6195C54.5961 24.8889 54.4884 25.1044 54.4884 25.2121C54.4884 25.266 54.4884 25.3737 54.4345 25.3737C54.3806 25.3737 54.3806 25.4815 54.3267 25.5892C54.2729 25.697 54.1651 25.9125 54.1113 26.1279C54.0035 26.3434 53.8958 26.5051 53.8958 26.5589C53.8958 26.6128 53.8419 26.6667 53.788 26.7744C53.7341 26.8283 53.5725 27.0976 53.4648 27.3131C53.2493 27.7441 53.1954 28.3367 53.1954 28.8215C53.1954 29.0909 53.1954 29.3064 53.2493 29.5219C53.4109 30.0067 53.7341 30.3838 54.0035 30.4916L54.4345 30.6532C54.4884 30.7071 54.5961 30.7071 54.7038 30.7071C55.0809 30.7071 55.458 30.4916 55.6197 30.1684C55.6735 30.0606 55.7274 29.9529 55.7813 29.9529C55.8352 29.9529 55.889 29.899 55.9429 29.7374C55.9968 29.6296 56.1045 29.5758 56.1045 29.5758C56.1584 29.5758 56.6971 29.037 57.0203 28.6599C57.1281 28.4983 57.3436 28.2828 57.5052 28.1212C57.6668 27.9596 58.852 26.936 59.1213 26.6667C59.3907 26.3973 59.9833 25.697 60.0372 25.697C60.091 25.697 60.091 25.6431 60.1449 25.5892C60.1449 25.5354 60.0372 25.3737 59.9294 25.3737H59.8756C59.7678 25.4276 59.6062 25.5354 59.5523 25.5892C59.4446 25.6431 59.0675 25.9663 58.852 26.1279C58.7442 26.1818 57.6129 27.0976 57.3974 27.3131C57.182 27.5286 56.9665 27.6902 56.9126 27.6902C56.9126 27.5825 57.1281 26.9899 57.2358 26.8822L57.3436 26.6128C57.3436 26.5051 57.5052 26.0741 57.6668 25.6431C58.1517 24.5118 58.3133 23.8653 58.3133 23.4882C58.3133 23.2727 58.2594 23.165 58.1517 23.0034C57.99 22.6801 57.7745 22.5185 57.6668 22.5185H57.6129C57.5591 22.5185 57.5052 22.4646 57.5052 22.4646C57.5052 22.4108 57.4513 22.4108 57.3436 22.4108H56.9126C56.6432 22.4108 56.4277 22.3569 56.3739 22.303C56.32 22.2492 56.1584 22.2492 56.0506 22.2492C55.8352 22.303 55.7274 22.3569 55.0271 23.1111C54.5961 23.596 54.219 23.9731 54.219 24.0269C54.219 24.0808 54.0574 24.2963 53.8958 24.5118C53.6803 24.7273 53.4648 25.0505 53.357 25.2121C53.2493 25.3737 53.1416 25.5354 53.1416 25.5892C53.0877 25.6431 52.6567 26.2896 52.6567 26.3434C52.6567 26.3973 52.6028 26.3973 52.549 26.4512C52.4951 26.4512 52.4412 26.5051 52.4412 26.6128C52.4412 26.6667 52.3873 26.7744 52.2796 26.8822C52.0641 27.0976 50.8789 28.8215 50.8251 28.9832C50.8251 29.037 50.7173 29.1448 50.6634 29.1987L50.3941 29.1448V29.0909C50.3941 28.8215 51.2022 26.3434 51.4176 25.9125C51.5254 25.7508 51.5793 25.5892 51.5793 25.5354C51.5793 25.4276 52.2257 23.7576 52.3335 23.596C52.3873 23.4882 52.4951 23.2189 52.549 23.0034C52.6028 22.7879 52.7106 22.5185 52.7645 22.4646C52.9261 22.2492 52.9799 22.0337 52.9799 21.8182L52.9261 21.6027C52.8183 21.3333 52.2796 20.9024 52.118 20.9024C52.0641 20.9024 51.9564 20.9024 51.9564 20.8485H51.9025L51.6331 20.9024C51.5793 20.9024 51.4715 20.8485 51.4176 20.7946C51.3638 20.7407 51.2022 20.633 51.1483 20.633C51.0944 20.633 50.9867 20.5791 50.9867 20.5253C50.9328 20.4714 50.8789 20.4175 50.8251 20.4175C50.6634 20.4175 50.5018 20.633 50.3402 20.9562C50.2863 21.064 50.1786 21.2256 50.1247 21.2256C50.0708 21.2795 50.0708 21.3872 50.0708 21.4411C50.0708 21.5488 50.017 21.6027 50.017 21.6027C49.9631 21.6027 49.9631 21.6566 49.9631 21.7643C49.9631 21.8182 49.8015 22.1953 49.6937 22.5724L49.3166 23.596C49.2628 23.7576 49.0473 24.2424 48.8857 24.6734L48.4008 25.9663C48.3469 26.2357 48.1853 26.5589 48.1853 26.6128C48.1315 26.6667 48.0776 26.936 47.9698 27.2054C47.7005 27.4747 47.5927 27.8519 47.5389 28.0135C47.485 28.1751 47.3772 28.5522 47.3772 28.8754V29.1987C47.3772 29.4141 47.4311 29.5219 47.5389 29.7374C47.8621 30.3838 48.4008 30.7071 49.0473 30.7609C49.2628 30.8148 49.4783 30.8148 49.5321 30.8687Z" fill="white"/>
</g>
<defs>
<clipPath id="clip0">
<rect width="59.2593" height="32" fill="white" transform="translate(0.831787)"/>
</clipPath>
</defs>
</svg>
