<svg width="23" height="48" viewBox="0 0 23 48" fill="none" xmlns="http://www.w3.org/2000/svg">
<path d="M20.5055 17.7708C20.1202 16.5426 19.5182 15.3867 18.6753 14.3753C19.9517 15.7961 20.8186 17.5782 21.1076 19.4565C20.9631 18.8786 20.7464 18.3247 20.5055 17.7708ZM12.0528 39.6613C11.9083 40.456 11.7638 41.2266 11.7397 42.0213C11.7157 42.816 11.7879 43.6107 12.0046 44.3572C12.0528 44.5499 12.125 44.7185 12.1973 44.9111C12.2695 45.0797 12.3418 45.2723 12.4381 45.4409C12.6067 45.7781 12.8475 46.1152 13.1124 46.3801C13.2328 46.5246 13.4014 46.645 13.5459 46.7413C13.6181 46.7895 13.7144 46.8136 13.7867 46.8617C13.8589 46.8858 13.9553 46.9099 14.0516 46.8858C14.4128 46.8858 14.75 46.7413 15.039 46.5005C15.6169 46.0189 16.0022 45.2964 16.3394 44.598C16.508 44.2368 16.6524 43.8756 16.7729 43.4903C16.9173 43.105 17.0378 42.7437 17.1341 42.3584C17.5194 40.8172 17.7843 39.2278 18.0492 37.6625C17.712 39.2278 17.399 40.8413 16.9414 42.3584L16.8451 42.6474L16.7488 42.9123L16.532 43.4662C16.3875 43.8274 16.219 44.1887 16.0504 44.5499C15.8818 44.887 15.6892 45.2242 15.4724 45.5372C15.2557 45.8503 15.0149 46.1152 14.75 46.2838C14.4851 46.4764 14.2443 46.5487 13.9794 46.5005C13.8349 46.4764 13.57 46.2838 13.3532 46.043C12.9197 45.5372 12.6308 44.8389 12.4863 44.1405C12.3177 43.418 12.2936 42.6715 12.3659 41.949C12.3659 41.7564 12.414 41.5878 12.4381 41.3952C12.4622 41.2025 12.4863 41.0339 12.5344 40.8413C12.6067 40.456 12.703 40.0706 12.7993 39.6853C13.0402 38.5294 13.3532 37.3976 13.6181 36.1935C13.8349 35.1579 14.0034 34.0983 14.0275 32.9906C14.0516 31.8587 14.0275 30.6546 13.7626 29.4746C13.6181 28.8966 13.4495 28.3187 13.2328 27.7648C13.2328 27.7407 13.2087 27.7166 13.2087 27.6926C13.0883 28.1983 12.8957 28.6558 12.7512 29.0893C12.8716 29.4505 12.9438 29.8118 13.0161 30.173C13.1606 30.9677 13.2087 31.7624 13.2087 32.5812C13.2328 33.3759 13.1606 34.1947 13.0402 34.9894C12.7753 36.5306 12.3418 38.0959 12.0528 39.6613ZM18.8439 36.2898C18.6031 37.3976 18.3863 38.5294 18.1455 39.6372C18.0251 40.1911 17.9047 40.769 17.7843 41.3229C17.6398 41.8768 17.5194 42.4307 17.3267 42.9846C17.0137 43.8515 16.7006 44.7185 16.219 45.5372C15.9781 45.9466 15.7132 46.3319 15.352 46.6691C14.9908 47.0062 14.5092 47.2471 14.0034 47.223C13.883 47.223 13.7385 47.1989 13.6181 47.1507L13.4495 47.0785C13.4014 47.0544 13.3532 47.0062 13.281 46.9822C13.0642 46.8377 12.8957 46.6691 12.7271 46.5005C12.414 46.1393 12.1732 45.7299 11.9806 45.2964C11.5952 44.4295 11.4508 43.4903 11.4267 42.5752C11.4026 41.636 11.5712 40.7209 11.7397 39.8298C11.9083 38.9388 12.125 38.0478 12.3418 37.1567C12.5344 36.2657 12.7271 35.3747 12.8475 34.4836C12.9679 33.5926 12.9679 32.6775 12.9438 31.7865C12.9438 31.8828 12.9438 32.1718 12.9197 32.6053C12.8957 33.0387 12.8716 33.5926 12.7512 34.2428C12.5585 35.5433 12.0528 37.1808 11.5952 38.8184C11.4748 39.2278 11.3785 39.6372 11.2822 40.0706C11.1859 40.48 11.0895 40.8894 11.0173 41.2988C10.8728 42.1176 10.8487 42.9123 10.9209 43.6107C10.9932 44.285 11.1136 44.8629 11.2581 45.2723C11.3303 45.465 11.3785 45.6095 11.4267 45.7299C11.4748 45.8262 11.4989 45.8985 11.4989 45.8985C11.7879 46.4764 12.1491 47.0544 12.7512 47.536C12.9197 47.6564 13.0883 47.7769 13.3051 47.8491C13.4014 47.8973 13.5459 47.9454 13.6663 47.9695C13.8108 47.9936 13.9071 47.9936 14.0275 47.9936C14.2443 48.0177 14.461 47.9695 14.6777 47.9213C14.7981 47.8973 14.8704 47.8491 14.9908 47.8009C15.0871 47.7528 15.1834 47.7287 15.2798 47.6564C15.9781 47.2471 16.3875 46.6691 16.7247 46.1393C17.0618 45.6095 17.3027 45.0556 17.5435 44.5017C17.6639 44.2368 17.7602 43.9478 17.8565 43.6829C17.9529 43.4421 18.0733 43.105 18.1455 42.816C18.3141 42.238 18.4345 41.6841 18.5549 41.1303C18.7957 40.0225 18.9884 38.9147 19.2051 37.807C19.3015 37.1327 19.3737 36.4343 19.47 35.8082C19.5904 35.182 19.759 34.5077 19.9276 33.8575C20.2888 32.5571 20.6741 31.2326 21.1076 29.9322C20.65 30.9918 20.2406 32.0273 19.8553 33.111C19.47 34.1224 19.0847 35.182 18.8439 36.2898ZM22.1672 22.6113C21.9745 21.5276 21.6133 20.4439 21.228 19.4084C21.517 20.5161 21.6856 21.4072 21.7578 22.5631L22.1672 22.6113ZM21.0594 28.3668C20.939 28.8485 20.7704 29.3301 20.5778 29.7877C20.3851 30.2452 20.1925 30.7269 19.9998 31.2085C19.6386 32.1477 19.2774 33.111 18.9402 34.0743C18.7716 34.5559 18.6272 35.0375 18.4827 35.5433C18.3382 36.049 18.2418 36.5547 18.1455 37.0363C18.2659 36.5547 18.3863 36.049 18.5549 35.5433C18.6994 35.0616 18.8921 34.58 19.0847 34.0983C19.4459 33.1591 19.8553 32.2199 20.2647 31.2808C20.4815 30.8232 20.6741 30.3656 20.9149 29.9081C21.1317 29.4505 21.3243 28.9448 21.4929 28.4632C21.6374 28.0297 21.7337 27.4999 21.8301 27.0664L21.3725 27.0423C21.2521 27.524 21.1798 27.9093 21.0594 28.3668ZM12.5826 29.5228C12.4381 28.7762 12.1973 28.0779 11.9083 27.3795C11.7638 27.0183 11.5712 26.657 11.4267 26.2717C11.2581 25.9105 11.1136 25.5252 10.9932 25.1399C10.7283 24.3693 10.5597 23.5745 10.5356 22.7798C10.4875 21.9851 10.5838 21.1664 10.7524 20.3717C10.9932 20.2753 11.234 20.2031 11.4748 20.1068C11.2822 21.07 11.2099 22.0574 11.3544 22.9725C11.4748 23.9117 11.7879 24.8027 12.2214 25.6697C12.2695 25.7901 12.3177 25.9105 12.3659 26.0309L12.5344 26.4162C12.6548 26.6811 12.7753 26.946 12.8716 27.235C12.9197 27.3795 12.992 27.5481 13.0402 27.6926C13.594 25.2844 14.3647 21.9611 14.8704 20.6125C15.063 20.0586 16.4357 17.1447 16.6043 13.3879L16.7247 13.412C17.3267 13.6287 17.8806 14.0381 18.3382 14.5198C18.9643 15.0496 19.4941 15.7238 19.9517 16.4222C19.6145 15.7961 19.2292 15.2181 18.7476 14.6883C18.29 14.1585 17.7602 13.6769 17.1341 13.3397C16.9655 13.2675 16.7729 13.1952 16.6043 13.1471C16.6043 13.0989 16.6043 13.0748 16.6043 13.0267C16.8692 13.0989 17.11 13.1952 17.3508 13.3157C17.8084 13.5565 18.1937 13.8695 18.579 14.2308C18.2178 13.8695 17.8325 13.5324 17.3749 13.2675C17.2545 13.1952 17.1341 13.1471 17.0137 13.0989C16.9414 13.0748 16.8933 13.0508 16.821 13.0267L16.6284 12.9785C16.4598 12.9303 16.2912 12.8822 16.0986 12.8822L16.0263 12.8581L15.9059 12.834C15.8337 12.8099 15.7614 12.8099 15.6892 12.8099C15.6169 12.8099 15.5447 12.8099 15.4724 12.834C15.1834 12.8822 14.8704 13.0026 14.6055 13.1712C14.6055 13.1712 14.4128 13.2916 14.1238 13.5324C13.8349 13.7732 13.4977 14.1585 13.2087 14.592C12.6067 15.4349 12.1491 16.4463 12.101 16.5426C12.3177 16.0128 12.5585 15.5071 12.8475 15.0014C13.1365 14.4957 13.4495 14.0381 13.8108 13.6046C14.1961 13.1952 14.6536 12.8099 15.1834 12.6654C15.6651 12.521 16.1708 12.5932 16.6043 12.7859C16.6043 12.7377 16.6043 12.7136 16.6043 12.6654C16.2671 12.521 15.9059 12.4487 15.5206 12.4969C15.0149 12.545 14.5332 12.8099 14.1479 13.123C13.7626 13.4602 13.4495 13.8455 13.1606 14.2789C12.6067 15.1218 12.1973 16.0369 11.8361 16.9761C11.5471 17.7708 11.3785 18.5655 11.2099 19.4084C11.1618 19.5288 11.1377 19.6733 11.0895 19.8419L10.7283 19.9382C10.8487 19.288 10.9932 18.6618 11.1618 18.0357C11.3785 17.3614 11.6434 16.7112 11.9324 16.061C12.0528 15.772 12.1973 15.483 12.3659 15.194C12.5344 14.8569 12.7271 14.5198 12.9438 14.2067C13.2328 13.7732 13.594 13.3879 14.0034 13.0508C14.4128 12.7136 14.9185 12.4487 15.4724 12.4005C15.7373 12.3765 16.0263 12.4005 16.2671 12.4969L16.4598 12.545C16.508 12.5691 16.532 12.5691 16.5802 12.5932C16.5802 11.5818 16.4839 10.5462 16.2671 9.46255C15.1112 4.02005 11.9324 0.504088 8.51276 0.0706141C3.2629 -0.603679 2.39596 3.73106 1.98656 5.4168C1.60125 7.07845 1.16778 10.8352 1.38452 12.9303C1.57717 14.6402 2.75718 20.5161 2.27555 23.3819C1.76983 26.2717 0.445322 31.4252 0.180421 34.58C-0.0844795 37.7347 2.39596 40.1429 5.28578 40.3596C8.17561 40.6005 10.0058 37.807 10.632 36.6269C11.2581 35.4469 12.101 31.6179 12.4863 29.9322C12.5104 29.8358 12.5585 29.6913 12.5826 29.5228Z" fill="white"/>
</svg>
